<mxfile host="app.diagrams.net" modified="2023-10-24T17:32:32.643Z" agent="Mozilla/5.0 (Windows NT 10.0; Win64; x64) AppleWebKit/537.36 (KHTML, like Gecko) Chrome/116.0.0.0 Safari/537.36 OPR/102.0.0.0" etag="WyaFgVEJ8Vyv7bZlJ1lO" version="22.0.6" type="device">
  <diagram name="Seite-1" id="iHrYo0emgdWHbcwnl6r3">
    <mxGraphModel dx="2033" dy="1126" grid="0" gridSize="10" guides="1" tooltips="1" connect="1" arrows="1" fold="1" page="1" pageScale="1" pageWidth="1169" pageHeight="827" background="#383f51" math="0" shadow="0">
      <root>
        <mxCell id="0" />
        <mxCell id="1" parent="0" />
        <mxCell id="61K489PXZdJANs798Jax-129" value="" style="rounded=1;whiteSpace=wrap;html=1;rotation=90;arcSize=4;fillColor=#4392F1;" parent="1" vertex="1">
          <mxGeometry x="747.45" y="404.55" width="703.89" height="140" as="geometry" />
        </mxCell>
        <mxCell id="61K489PXZdJANs798Jax-128" value="" style="rounded=1;whiteSpace=wrap;html=1;rotation=90;arcSize=4;fillColor=#4392F1;" parent="1" vertex="1">
          <mxGeometry x="-270.87" y="389.38" width="707.5" height="165.75" as="geometry" />
        </mxCell>
        <mxCell id="61K489PXZdJANs798Jax-9" value="" style="rounded=1;whiteSpace=wrap;html=1;fillColor=#03CEA4;" parent="1" vertex="1">
          <mxGeometry x="428.5" y="6" width="313" height="108" as="geometry" />
        </mxCell>
        <mxCell id="H6RvHzRp-p8A8c3SHt8J-1" value="" style="shape=image;verticalLabelPosition=bottom;labelBackgroundColor=default;verticalAlign=top;aspect=fixed;imageAspect=0;image=data:image/png,iVBORw0KGgoAAAANSUhEUgAAAXgAAAB4CAYAAAD46ukSAAAAxnpUWHRSYXcgcHJvZmlsZSB0eXBlIGV4aWYAAHjabVBbDgMhCPz3FD0CLxWO4z6a9AY9flEx2d10jICMjkA6v593enUQSpJctVgp4BATo+aBwkQbFkGGHagaEd7zqa5H5Cl2z/OoZXpc+XiwPDaP8kVI9yC2O2ES+voQio+4V0QeHCFkIcQ0CQyBNtuCYlqvLWwn3KFzp27KDqMRDPXnWapP78j+DxOdjAxumWUWwH1z4taJYc0vApvH2VdzukYlPpB/c1pIP2c3WgD0dBCSAAABhGlDQ1BJQ0MgcHJvZmlsZQAAeJx9kT1Iw0AcxV9TpVIrDu0g4pChOtnFLxylikWwUNoKrTqYXPoFTRqSFBdHwbXg4Mdi1cHFWVcHV0EQ/ABxdXFSdJES/5cUWsR4cNyPd/ced+8AoVllqtkzB6iaZaQTcTGXXxUDrwgijACm0S8xU09mFrPwHF/38PH1LsazvM/9OQaUgskAn0g8x3TDIt4gntm0dM77xBFWlhTic+Jxgy5I/Mh12eU3ziWHBZ4ZMbLpeeIIsVjqYrmLWdlQiaeIo4qqUb6Qc1nhvMVZrdZZ+578haGCtpLhOs0RJLCEJFIQIaOOCqqwEKNVI8VEmvbjHv5hx58il0yuChg5FlCDCsnxg//B727N4uSEmxSKA70vtv0xCgR2gVbDtr+Pbbt1AvifgSut4681gdlP0hsdLXoEDG4DF9cdTd4DLneAoSddMiRH8tMUikXg/Yy+KQ+Eb4Hgmttbex+nD0CWulq+AQ4OgbESZa97vLuvu7d/z7T7+wG1UXLBpHJBXQAADXZpVFh0WE1MOmNvbS5hZG9iZS54bXAAAAAAADw/eHBhY2tldCBiZWdpbj0i77u/IiBpZD0iVzVNME1wQ2VoaUh6cmVTek5UY3prYzlkIj8+Cjx4OnhtcG1ldGEgeG1sbnM6eD0iYWRvYmU6bnM6bWV0YS8iIHg6eG1wdGs9IlhNUCBDb3JlIDQuNC4wLUV4aXYyIj4KIDxyZGY6UkRGIHhtbG5zOnJkZj0iaHR0cDovL3d3dy53My5vcmcvMTk5OS8wMi8yMi1yZGYtc3ludGF4LW5zIyI+CiAgPHJkZjpEZXNjcmlwdGlvbiByZGY6YWJvdXQ9IiIKICAgIHhtbG5zOnhtcE1NPSJodHRwOi8vbnMuYWRvYmUuY29tL3hhcC8xLjAvbW0vIgogICAgeG1sbnM6c3RFdnQ9Imh0dHA6Ly9ucy5hZG9iZS5jb20veGFwLzEuMC9zVHlwZS9SZXNvdXJjZUV2ZW50IyIKICAgIHhtbG5zOmRjPSJodHRwOi8vcHVybC5vcmcvZGMvZWxlbWVudHMvMS4xLyIKICAgIHhtbG5zOkdJTVA9Imh0dHA6Ly93d3cuZ2ltcC5vcmcveG1wLyIKICAgIHhtbG5zOnRpZmY9Imh0dHA6Ly9ucy5hZG9iZS5jb20vdGlmZi8xLjAvIgogICAgeG1sbnM6eG1wPSJodHRwOi8vbnMuYWRvYmUuY29tL3hhcC8xLjAvIgogICB4bXBNTTpEb2N1bWVudElEPSJnaW1wOmRvY2lkOmdpbXA6YzdkN2NiM2EtNmJiMS00YmVlLWFhNTMtMjA2ZTA2YTNiZmUyIgogICB4bXBNTTpJbnN0YW5jZUlEPSJ4bXAuaWlkOjZiYTAzMzJkLWNkOGYtNDQyMy05ZGZlLWQwMjhjYmIzMjNlZiIKICAgeG1wTU06T3JpZ2luYWxEb2N1bWVudElEPSJ4bXAuZGlkOmMyYzAzMzFkLTQyZDctNDZhZS1iNWE0LTllNGQzMjNkYTlmNyIKICAgZGM6Rm9ybWF0PSJpbWFnZS9wbmciCiAgIEdJTVA6QVBJPSIyLjAiCiAgIEdJTVA6UGxhdGZvcm09IldpbmRvd3MiCiAgIEdJTVA6VGltZVN0YW1wPSIxNjk3NzAyMTM0MjcyMTI0IgogICBHSU1QOlZlcnNpb249IjIuMTAuMzQiCiAgIHRpZmY6T3JpZW50YXRpb249IjEiCiAgIHhtcDpDcmVhdG9yVG9vbD0iR0lNUCAyLjEwIgogICB4bXA6TWV0YWRhdGFEYXRlPSIyMDIzOjEwOjE5VDA5OjU1OjI3KzAyOjAwIgogICB4bXA6TW9kaWZ5RGF0ZT0iMjAyMzoxMDoxOVQwOTo1NToyNyswMjowMCI+CiAgIDx4bXBNTTpIaXN0b3J5PgogICAgPHJkZjpTZXE+CiAgICAgPHJkZjpsaQogICAgICBzdEV2dDphY3Rpb249InNhdmVkIgogICAgICBzdEV2dDpjaGFuZ2VkPSIvIgogICAgICBzdEV2dDppbnN0YW5jZUlEPSJ4bXAuaWlkOjQwMjYwZTJhLThkYTItNDNhYi05Y2QzLTNiMGI2OTkxMDFlMyIKICAgICAgc3RFdnQ6c29mdHdhcmVBZ2VudD0iR2ltcCAyLjEwIChXaW5kb3dzKSIKICAgICAgc3RFdnQ6d2hlbj0iMjAyMy0xMC0xOVQwOTo1NTozNCIvPgogICAgPC9yZGY6U2VxPgogICA8L3htcE1NOkhpc3Rvcnk+CiAgPC9yZGY6RGVzY3JpcHRpb24+CiA8L3JkZjpSREY+CjwveDp4bXBtZXRhPgogICAgICAgICAgICAgICAgICAgICAgICAgICAgICAgICAgICAgICAgICAgICAgICAgICAgICAgICAgICAgICAgICAgICAgICAgICAgICAgICAgICAgICAgICAgICAgICAgICAgCiAgICAgICAgICAgICAgICAgICAgICAgICAgICAgICAgICAgICAgICAgICAgICAgICAgICAgICAgICAgICAgICAgICAgICAgICAgICAgICAgICAgICAgICAgICAgICAgICAgICAKICAgICAgICAgICAgICAgICAgICAgICAgICAgICAgICAgICAgICAgICAgICAgICAgICAgICAgICAgICAgICAgICAgICAgICAgICAgICAgICAgICAgICAgICAgICAgICAgICAgIAogICAgICAgICAgICAgICAgICAgICAgICAgICAgICAgICAgICAgICAgICAgICAgICAgICAgICAgICAgICAgICAgICAgICAgICAgICAgICAgICAgICAgICAgICAgICAgICAgICAgCiAgICAgICAgICAgICAgICAgICAgICAgICAgICAgICAgICAgICAgICAgICAgICAgICAgICAgICAgICAgICAgICAgICAgICAgICAgICAgICAgICAgICAgICAgICAgICAgICAgICAKICAgICAgICAgICAgICAgICAgICAgICAgICAgICAgICAgICAgICAgICAgICAgICAgICAgICAgICAgICAgICAgICAgICAgICAgICAgICAgICAgICAgICAgICAgICAgICAgICAgIAogICAgICAgICAgICAgICAgICAgICAgICAgICAgICAgICAgICAgICAgICAgICAgICAgICAgICAgICAgICAgICAgICAgICAgICAgICAgICAgICAgICAgICAgICAgICAgICAgICAgCiAgICAgICAgICAgICAgICAgICAgICAgICAgICAgICAgICAgICAgICAgICAgICAgICAgICAgICAgICAgICAgICAgICAgICAgICAgICAgICAgICAgICAgICAgICAgICAgICAgICAKICAgICAgICAgICAgICAgICAgICAgICAgICAgICAgICAgICAgICAgICAgICAgICAgICAgICAgICAgICAgICAgICAgICAgICAgICAgICAgICAgICAgICAgICAgICAgICAgICAgIAogICAgICAgICAgICAgICAgICAgICAgICAgICAgICAgICAgICAgICAgICAgICAgICAgICAgICAgICAgICAgICAgICAgICAgICAgICAgICAgICAgICAgICAgICAgICAgICAgICAgCiAgICAgICAgICAgICAgICAgICAgICAgICAgICAgICAgICAgICAgICAgICAgICAgICAgICAgICAgICAgICAgICAgICAgICAgICAgICAgICAgICAgICAgICAgICAgICAgICAgICAKICAgICAgICAgICAgICAgICAgICAgICAgICAgICAgICAgICAgICAgICAgICAgICAgICAgICAgICAgICAgICAgICAgICAgICAgICAgICAgICAgICAgICAgICAgICAgICAgICAgIAogICAgICAgICAgICAgICAgICAgICAgICAgICAgICAgICAgICAgICAgICAgICAgICAgICAgICAgICAgICAgICAgICAgICAgICAgICAgICAgICAgICAgICAgICAgICAgICAgICAgCiAgICAgICAgICAgICAgICAgICAgICAgICAgICAgICAgICAgICAgICAgICAgICAgICAgICAgICAgICAgICAgICAgICAgICAgICAgICAgICAgICAgICAgICAgICAgICAgICAgICAKICAgICAgICAgICAgICAgICAgICAgICAgICAgICAgICAgICAgICAgICAgICAgICAgICAgICAgICAgICAgICAgICAgICAgICAgICAgICAgICAgICAgICAgICAgICAgICAgICAgIAogICAgICAgICAgICAgICAgICAgICAgICAgICAgICAgICAgICAgICAgICAgICAgICAgICAgICAgICAgICAgICAgICAgICAgICAgICAgICAgICAgICAgICAgICAgICAgICAgICAgCiAgICAgICAgICAgICAgICAgICAgICAgICAgICAgICAgICAgICAgICAgICAgICAgICAgICAgICAgICAgICAgICAgICAgICAgICAgICAgICAgICAgICAgICAgICAgICAgICAgICAKICAgICAgICAgICAgICAgICAgICAgICAgICAgICAgICAgICAgICAgICAgICAgICAgICAgICAgICAgICAgICAgICAgICAgICAgICAgICAgICAgICAgICAgICAgICAgICAgICAgIAogICAgICAgICAgICAgICAgICAgICAgICAgICAgICAgICAgICAgICAgICAgICAgICAgICAgICAgICAgICAgICAgICAgICAgICAgICAgICAgICAgICAgICAgICAgICAgICAgICAgCiAgICAgICAgICAgICAgICAgICAgICAgICAgICAgICAgICAgICAgICAgICAgICAgICAgICAgICAgICAgICAgICAgICAgICAgICAgICAgICAgICAgICAgICAgICAgICAgICAgICAKICAgICAgICAgICAgICAgICAgICAgICAgICAgCjw/eHBhY2tldCBlbmQ9InciPz6T5NkrAAAABmJLR0QA/wD/AP+gvaeTAAAACXBIWXMAABYlAAAWJQFJUiTwAAAAB3RJTUUH5woTBzcij6GWHwAAIABJREFUeNrtnXd4VVXWxt99ayDUAOmJFGkBBEkIkd6RNggOKFjGzjDj2GewouB8Ao5lxDaoKCiogAhKUDoSSgoJIZQUBIHbUoCEKrnl3P39cYlp95RbiXH9nsfnkdx7zzn7nL3fs/baa68FEARBEARBEARBEARBEARBEARBEARBEARBEARBEARBEARBEARBEARBEARBEARBEARBEARBEARBEARBEARBEARBEARBEARBEARBEARBEARBEARBEARBEARBEARBEMR1hjWmxizZY+ZLj2qDcq6OLZ3o2tqJeWOjGXUjgiAaIprG1Jh1JwIn7jHNOLq1EtCltUvYB3SPJ2EnCIIEPlj0aitgl0ntl2O10HH0aiOga2uOrq0FDO8pL+jrD5j4brMKuy2u29quCUevtgIWjicrnyCI4PO7Ep7th418ZK84yWt+7LtinlHiucirGNCrrRM92wjo2sqJW3vHKbo3O48Y+R6LGnssalRY3f8kJVLA4slRJPIEQZDA12Vlpol/WaTFmasMYSHA8Bg75oyKEb32BdssfNNpNa46pJvXqaUTPds40aONgNv6xim+F5lFhtX7S9TT0ixqnLqoUvSb/w6uxIAEcusQBEEC/xt78w18bqYel2y1L/W+BDv+Nlhc5NPyjXzzaQ1+uaDCRRtwyc7QQsvRq60TvdoImNk/1uO2L0s38fRiDXLPqDxux/0JDsweTK4agiBI4H/j2R8sfIfR/VLB7F423D8gNqBtWL3fxA+UqZFmVsHBvT9V33YC/je12k2zN9/AB5JFTxBEAFE15Iv7NtsoKu4A8OFhHdblGLm/z5uaa+TzN1v4+OUl/I0DOuwwqX0SdwA4eFaNzCLD6t9mA4U66n0EQQSUBh1Fs/GUfNjj2uP+CY3cecTIc8pUOHBGjflZ/n/vOTmQd0Y9rerfTTUcPxw08vF94siKJwjijyXwH6aZ+GcF8kJruOybGK/MNPGdJg3m7A38ZObg2epzDItx4KtjWuqBBEEEjAbrotl4Wpn4tdR576HJKDRkv3NQh0Nng3MbDp2tDt+ckhjHyiuBFRkmTt2QIIg/jMDP32zmZb8q81yMjHN4fR6HE4nBbJdNAD7Za+bVVryAr49pqBcSBPHHEPjNeQaeekqZ9T69swNPDIvx2oc9KCGeDY0Vgtq+mrOFoTGORWVXVXh3l5mseIIgGr/Af/+LMnG/q6sdz4zwPa78PxOi2D8TbUFr38EaMfTJ3W54tk87AV8WkRVPEEQjF/hl6Sa+v0w+zcADCXY87oPlXpdpSbEsa1Y4m9zJEfA2VgoMy9Kr/e7DYgUInGH+ZrLiCYJoxAK/8aS8JfvXnjb8dXBMQEILXxgVzbJmhbPuYc7AWvE1FltnJsey1nqO1FNaZBQasqlLEgTR6AT+9e1mfvqS9OU81tuKBwZ6v3N15xFlm6KWT4tkL/e3opU+MEZ1Xp1UBwOjXOsAX/+sS6QuSRBEoxP4VBnr/Zm+Ntyd4v2moMe+K+Zz9uox4+sSvjxdPjRxQp84tuW+CDajq93vbb1iZ/gqq/oaqhZ691lU+DHPSK4agiD8QoPYRfn0BguvyqHujueTrLgt0b24b84z8I2ntDBdUWFojAOPD63vvkk7auTP7NHX+ltyhIDx7R1QupN09rpinlOm9lubB0c78Oak6kXi+9YU8/xyNbq2duKL6ZF+eS4TPi/lZ66KHyoshGPTXyJoJy1BkAUfGDbmGiXFfV6KTVTcl2eY+aIcPTJK1DBdYvjuhPvjXHJjhGeVqvFKph7zthTz7GOGUXLX+eGUKLZoYCXat/CPfz7vbO2XxaBo13GLKlRYmemfzU8qGel20lyBIEjgA8nXP7sPi9SoOBYMsGJcb/c+90XbzPz9PC0u26s/rvn/NVFLtHLjSTXmpuu3fpAmH8UyvGc8Wz0jkj2YYEcznW/qeNHGsDanWsgfGhjDWlybZHxZ5J8UBhomfY2+JlAjCIIEXpRP9pl5UUX9S2imBRYOsEKsetNT31v4Wg/qr8rF5pytZFhWoMV9a0r46v3y1vOswTFsx/0RzJddtACwv6R22/tHuHzxZ64yvJ/me9ikSsaEd5IJTxCNmuu6w2aNm236YSEc81Jsa/p3jZ9e97Nth43803wd9hR7ZnmqmTIhyy9XIb9ch2dSi/mE9nbZOqwLxkezzCLD6qVHtdMOnvHcP597pq6bxoGtBtffvij03Yp3tVu8CcLvyILfftjIj5SrYK1TpWtQtIMKoBMNih/zjLygXAWHs3a3/NfI4Bf8uW4CP3+LmaeerN3e6FCO9XdHsE1uvr88w8xf268RdcNINlLt2W/SzGpklaiwaJuZS5UGBICqF9EX6Sa+/qQWxkvKz1VhZdiQa+STbnbNVMb1jmP3rinhheUqODkwf7OFzx3rfafQyMzPrMLvZ9C8kqWH1c2EqVNLJykK0WBIyzfyZ3br3X6244iRj+gZ3PTg18VFk1VkWJh6sraF2r6FE+vvdh/R8fp2Sz1/uxjuFkyVWvA1qRQY1p7Q4s9flvLP9sm7be65JZatnRnB/nyjHU3Uys+3v7S2FV/lpgGA1FMaZBUZFv6uHm4A+GyfiVtFvGECuZmIBkRWifioE66DLXJdNOCzAt2cmv/u2tqJ1TMiRf3t3xxXPtEQnHiknsCr2Bpvr9VwieHDwzrMXlfMN+TKx6j/a2QM2/VQBBseq8w/n11a+xH8fUgMC9VUn2ZlkXZOoCz43wvHzksMGpB3hmg4/CzZV/8AAr/+gJHn1BC1m9qKx33PXFXK9xR75kUSOKa5seA/8vW6c8rUeDVLj5c2WXjN0ntiLJoQzZ5NtKJXW+nX9tlKFbYcqv3iSImq/k16sRqbDnm3+UnFGsugUTcoq4ggxCisEJdU5x/Bgl+WX+2aSYoQ8Mnt9cV9XY6Rj/i0lB8/77lCuQv9S+oSv81f17/5tAZz0/XTFv8k77aZmhTHlt4eyR7uYUN0U/GnW9dNkxxR2/pfUeDdgqu6kVjwpstM4nmTqBANgz35Bn7V0bCCGoIqAf/bbeaWK65TDooS8MFtUfVa/NZOM1+QrfdqMRUAHEF4S1ZYGVYU6XDP6hJeM+WAGA8PimXr74lkUzo5oHdjjGbVEfgpiXGsc0uhloviSy82P6nx+1e/73NNXMrNTi54oqFw/Ly0nF6P9aKgCvzyApe7ZWSsA2/9qb64P/W9hX/tY53SYE7ZiypUeDtXh6c2FPPtChKZPTcqms1LsWJwTG1vXPEVhl1Ha/++f1TthngTNqluBC6aYxXSjRBosxbRUPrqBelQ6euxXhS0MMm5myx802mGce0dmOcm9M/lb/f9BlyPKfseixqZJWos2Gbhz42SDmusCpNavd/IN57UoKDC1Sku1qk50j/SuWbNcUyrih45V8nw7i4T/8dQ5dk0lbhoco4ZOiZ2if/F27ZvOWTk5yoZLtkYLtmAEI2rTm5YCFec50eKn2WsIn9u1tqcZ+DnKlW4YGP41Q4003K00Lva44+21CS90FBuvKRqfdkGXLo2W22p42gdwjG5b1yje2vtOGLkZVcZLtoYLtsAnepaP2nCMaFPcNubXmAot1xRta6wMly0AaEajrZNgRuaO0f74s79Wc4YuQ4++KDd2OQlZfy2Tg48X0cAd+cb+csZOq9dMnV5KdmKqrjyWoK5pIwHQ/ujQ52Y0EHAwwOV5ayvyjtzV//6wv3P1GK+y1xtFTAGZD4SrvhGPfm9he+VWaR+b2jlouRu8c960sZ9BQb+k1mD3RY1zkkkM2uq4biprRMDoxy4I1nZIN5yyMiPX1DhxHkVjl9QoeQK89rRJGZM1OTzDDPffFot+yIBXNFeQ6IFPDzI+3oE76eZ+d5iDeTWl7qHOdE/QsDfhkifa+aqEi7mGmim5egXIWDRBM/3UszfYuF7LGqct7r/6eSODrwwWvq4WYWGhbssmjlpZjVKJWosh6iBHm0EDIgUcM8tnqUDH7q01K3fu1NLJ/7R21ZrE9yKTBP//oQGpyTSkkeFctx6gwOzFdSc+DHPyI9f66fHz6sgldhPjru6OfD4UP9vhLqulsIX6Ub+7iG9X4/5fD8bbutbv5MM+KiUBzP3Su92Tkxob8dtPlhja3NMfFG2rtbfJnQQ8PKYKEXHfDq1mO82S08b3xlaWXFLt/gwpVbn2uPa1mlmz3fthjflmN7ZgXtTxAfOO7vMfGWh1m/PYGy8A6+Ocz9oUnNNfOlRDcxXPPdSttBxPNjDjhnJysXoPzss/IeTalxxeNYdmmg4xsQLomL66V4T/98RneQx+rQT8NHUKMUnfmOHha/+WdoweGOwFUMS3Pft7CLDqPW/aLZuMXjuIGit57itkx2zByu7t8M/LeVXRIzDwTEC3pzoaveDa0v44bPKn3WHFk6smiGe1XXeFgtXUqBIKTO62PHkcP8XMrpucRbzt1j8Lu6uaZB7e08T5JjBvDMqvLZfjxd+LOb78g1eGaG3J8aySR1qR9RsPKlcXJUssjqdaK3kWCsyTPzpNL1X4g4AZb8yvJenxXMbLaIXpfHzIxLzeb66xcLnZ+m8EneXO43h7Vwdnv3BInuD9+Qb+PjlJXzNzxqPxR0ArjoYvvtFg+lflfDsovqb+B4YGMuaaLhMX/Tsme0rlv5+p5ZOUXH/NsfIn9wd4pW4A64Ahs/yXftOFPVxJn5Ps0tV2Fdg4FNWeibuAHDyogp3fFXCgyWcQoDcC9dF4B/4poSnngyM+1/Mz+XNblZ/sNWgxtxMPf77k8WrC3hpTDS7sZV3zjslPngli5Rv7TTzxXk6v2Sf3G7S4O8ig1fl52fkzj//xg4z3+CnvrfDqMGKDPHoptRcE38xXY+zlb4Ps1MXVXghXb/V3WdDYqS30HAAS3Yri8JKLzSUS4WlSp3vo71mvjBb75cUGDllaty3Rl7kpcb1VQfDnH0hMF/27v6fvKjCCz+6vwZ/hyA7A+RdCLrAj/i0lB85F7jTOuB5yuBAc9HG8GWRBjNXlfAVXoQ7fnlHJHsp2YpB0Q7M9KDClJIoGkFmZeLLTJPPkU112V+mxls762fLbObnd747C379L/5rS3xzjrtT3LsSMouMq984oMWvDv8N3Aorw1/W1Lcqx90gv2s6q1TZzT1Qpm4tJ6ju/NOpuUa+9Ih/+0l+uRrztkgbRnJ93OpbwldsNaixOa/+DDzUv02FM0ArhEGTvR/zjDx5SRn312KqqMA7vbdmA83x8yosPqjDom2epwKedHMce2tSNHtiWIxfo2ikLPjd+Ub+4WGd7DFa6zn6R7oqZI2OF9C+ufyM4+tjWuwrqD1w7rkllvWP9N+G7ro7B9/aaeY2BYdvouHo3NKJyFDpx/RwD6voZ28e0E5TIu592wkYHS9gYnsHuocJCJHJY1RQrsL/6ljjA7rHs26tpe/50XJlA6Bu6oy6JIbXP8/+IsMjb+XqZB2CzXWuSmq33uDA2HiHokRxG09qsO2weAiyKgjj+pvj9cfAoChHp95t/RcWE6hw36CFSb6coQ/KecRcNJoGFHjmSS57X1Arul/iw/LzQq3sdPumtk58cnsk2+zmM7kyh6vczAzenVy9GLgpz8jnyvSbiR0cmDvG/QJkVn3rVPJYcc05HuttxdAetdMP/3DQyLNK1dhXXB1VMjzWgbG93acpfj/NzJcXSCtPuyYcT/e1wV12QblFzrXH69+3UfGC9DZ5DizdZ+YPDpA2EKrCdqXcM+/Vf1kvkTPcqkpRbnfz2dMbivlui/h5VxSK3wutTErsmvRpJ2B4rIDOrVzhkBsPGvmyfC1OX5J+VnlnVUgvMJTf0r06GOFaaPFvJ16ZaeLvHJQ2hv7S3Y6/i0RFZQVIA4Ji124OYiFpMT9xQ9q2H6oJzu3wxYJPLzCUHzojfYBOLZ1uU01U8eGUKNZVwrJML1EjvcBQLto5FYxbT8LgT1yQPuC0zvZ64g4A4/vEsVfGRrMt90WwJ2+24b4Eu2To4Y+npe2mEDUwL8U6Wix17DMjotntN4q74i7YGD7YXXsWeG9KDGsmM9nKLJF+nisypHcNt9AB0/vVd0ntLZF+KcSEStcZfnNSFOvbTpB01YjlY2JMvpO01HE838+Kj6ZGsRnJsawq1n1Cnzi2ZmYkk5upAcCRchnXlcp7bQokqoYiNH4TeJHl6Ou1yFpvkOiBh3rag3IuJW0WW9zZbNC0lvv1P3rbZI9/R2fpth44Iz5wFL2gPJgly02DlaS5mJEcy/4mESO9LsfIy36VPs+MrjbZ/EhzRtbOKgoFs5FhMdIO5yMykSTZMtE2A6LqH//NHWYul0Rr9k3y/X1mN+lrzyl1f20alXwfXzDAOloqXHlqR/nrM8jUeVC03tVYUxWM6hXHUiKDkyzTKTJdawgumpFxAuYlV7rd1KSERdvMfF2O8tmQWoEJ7BBZ3MmVGewJYU5FlZQm3hwnGcZ3QOI8SsI8/bn9+9vjvrvODp6Vvm8MUBzjfVM7ceUscONTH3uDsIbJWJDL0sUX+XPLpOVgqJvoGbn2xoQ6MeYm+b0gQxLiWERT8ect1h/lDqxVAUldpV+mXcOcFXLXd04mEkpRSHJjTja2eHIUm9LJEfDziE2DNNcxd26vNgKeS7JiwfgoNjDB8/JyH+8x81uXl/G1J7RYkK3H6iyjwhhhBQIpcr+KrzBZgVeK1MA9dVHl0wvKk1QF4U2lv2u6zDBsaSl/Z5f39XCPnJMWvA4eVKCKlMhAanei3uJj/65x03vKLPyJRdNsyDVJZkKMCXW6rZH88wVpCUlowz1or/h3xSqlyfURJfHlSjb6ie3o9Wi2yYNvwQe1ZN9zo6LZ2mwTX3VMertw4Fw0wRX5iKYckzo48MigGLbUy2PM32zhHx+t/Zh+uaRs44qyaaMbSzbbyBfmSP8uo0SNv6xRthnl9EXxC7lk8+0F5Ylfs3uYE2W/St+7Xx0MKwu1SF5SxhPCBAyNEZDQhq/p3zVuupJzyJVsLK9kiu/bvmLpMXLBjeiMinPg8FlxZ/zBMvfXlyNjvQ+PFbCuzt+2Hzby5/ZJt+HwOZXi9p6UeNlzuM+bJDeulb7/Q7UcVyQWiq/apQ+kUhSS3IiTjVVxe5Jrevrijxbu7W43b25iMKsbqRgwob0dL42JYRt8OM6GXCN/Nav+PerUQpm7S1kcvBvhsMn/0LUZRu2X+yWW8EytwhqgfgEXby34IdECdpmUX3N+uRr55WoAmDZlZQkfHiPgsWG+bSc/b2U4b/XPfatwI/AzkmPZmGWlXMzidHCGFZkmfncdN2F2qVqyP7tr9wWr/DWWXGEoueKf9l6wsRN11dxfm+PUMou1cq5Ab42pRuOiqcu/x0WzR3vbEd7Ev9MWsSlZsFLnpkQKmJ9ixUtjlAnBTok0w+5KFXZo4cS0fsry26hU3t2vi/bgWhqVDpwQeWYfyV+/8muddHOs12tB5ssqrCjSYsgnZVxsV2havjGoc3CxEFa5cpH760S9pB11ZXoUo3db9ye6Dv3EjeHmn2uQmy3KLSR7a0w1WoEHXKFdLyRbKwZG+c83bxex6FQBjqLp2NKJx3pbsXhyFFOyqPTeLjMf93kZn7NXj/mb6+/WW3/AxAvK1W6m4MoFSuPltDHYnUJsXUJJ6lZPB83iydKhm7IiIwBL83WY9W19t0OwC6yEat2fb2SssEhyxlRnwTL3jOeLq64xFVyBb+7G8+Svey4n0HJpyDVeGlONRuDXZJv4o+uLeWZh7Xqmt3SLD3v7T9Hs/gS7X+LDg+2iaaYD7uxsx9d3RrK7U+SF/ev9Jn7P6hL+eaEW5666/nbCjY/aXTqHDi2cHqWqVRRH7uaF2EoXvJ6YGC74+Lw9/80X0yNZPx/Pm3tGjac31BZ5bxbQvaW1nuM+kdS6yd3in5WKK7cJqLVQnyURxx6q4ZgpEvXVWh+8ftK5lROD3SQ481cIttxx5DyBvoQkB5Kg+eDD9BxZpWqYr6imfZtt5FOTaj+s2YNj2PYjRr7qmAYHz3jvsxPdyRoAgR8Z68D4Dg4MVjCwtx828o2nNHjrQP223dC8fuc4fM699b7Kk4fr5SJlqxD5Y0/o4EBiO9+ciqFaJ4b39E0UvfVrvj8liq3PMfLNBg1yyrzrb7stavyYZ+Tjelf3Zb0akrt/O7dyYkYX32asGhXHrb2ljYnR8YJkCOr+MtfQzzlm6Dh7p/jgGBjtxE6Rz1oqMASGxgoYGu3by7SJhruN4FHqGlE+Vryvp6pSYE1djzj4oAn8yF5x7PkfLHybUYOFOXq8u8vM/zG0tjU68trOvjd2mPnqn7V+HfBqP4ZJ9mrjyvU+NSmOLVDw/de2WfhLGWo4nO6voW4eka2HDPyFdOaT9a6007mz4JUM3ItWhok3x1733QW+xMHflujqb9nHDKN2mdRbd5o0KPOwaMOuOumTW+q45DGKrwTnvt2eFMvGLi/lFZXuT7X/Ws6ZvLOqE1LHGRwtvgloSI84lrykTLKzVFQGtr1KBD67yDBKLhZebqzIibPGh5DkRuGiAYDXxkcz3bXx8EWheG7wZ0bEsBf7WdHFizS5oqkK/OCDj2jK8UCCDUv/HMnqzkDc8fEeM5+8opSvP6ERFXcA9abAYta7xw+XebdRaEiPOCaX9OrwuYaR+8HhB6soqUv8tqdHxLDUeyPYS8lW3H6jXdFLDkBVlM1vdJLps5ftDErq9/qDMXHiM4VfHQwbco1candreBMumm+nirYh0u0tKA9sP1EpmqViofyLgvvkXlEx5DRECz7oo/SB7tWBz9tNGtyzuoS7yxb3p75xbMUdkWxie8+29Yv5ZDU+CLyKMUzs4MCGeyLYXxXsQvw2x8gf/KaYf3xUK7thKDq0/gCp63+/obnTqzJxGh+2+idHSg/c81YmmQs9WPjbrznp5jg2Z2QM23p/BJvRxe52Ya8mJXWeb/8I+RfxDyeDM3F+eoR0nzl0Vo2C8+JunBFx8q6kW6Kk+4nd6Uq+FjALXskslSPR15mA3FqPhkG27OX1KLodfIEfGMtqWuZFFSq8lq3HsnT3nWDu2Bj25M02xIQqs+ZF0wV7eW/7Rwp4JaVSNGNhTdLyjfy5H4r5wmy9WytciXsms8i4uu5uyDHxQsAerphRMSBSfnB/WqDz+JqyjxlG5RwzdPRXf7IHMLb4yeExTC7/ft00DDP7x7IQmUe/26KGJyknqvjpiOeVwaTCQveXqiRr6g6Kko7GAYABUfJ986tjWmQVGhZ6eu1100l7OzNXshnOV4GXcwG5+uofQOAB4OGetbcvXrYBHxzS4t9b3Yv8jORY9kKybbRcfK+0i8aza+zQkuMfvW14d3IUu1VB2OMbO8z85Qwdths9W7DrFla7yXlnVLU29sQ2414XeVa0yCoikFOT4lj7FjLuBhsUl1bbdtjIH/62hP9tZ8jW2TtDTizarsyqayoTWVV6xbtB466Igzvim0nfgxZu3nHj2sv304+P6JB2VJnIz99s5oM/KeP/2huCe1eXeCTyIyWscItEycKebZxQUox9ZK84JpcX3SYA7x3SzVHyYt911MAfXV/Mk5eU8SfSQkQrKnlkwStwjfgaRaME8+U/iMAP7RHPxrWv/+b//hctZq8r5vuLDI/Ue0N2id+2aEI0e6SnXTI8SyxVgVZhS0O1HHd0tmPVnRHsnhR5d8zydDOf/mUJX/2zVnKrs7gFL9Ty3dX1bSup1iP6cBW02SkxbZzRRd49llOmxojPyvjHe8z1aobuOmrgH+0185mrSvnz+/TIqxFvvfa4Fp/tk3fxtJQpI3DFwTDn2lpOaq6Rz99s4e72FVSxIsPEk5eU8ZcyQpC8pIw/ul5aQOS28Hdw8xJ8blQ0E4tRr+JsJcMze/R4ZbOFuxP61ftN/OlUl9ClnqrOy19YoYLcNddkcl/pJF5iDIlR3u/uVNBPCitUeGJ3yInFP5l5ZlHtUOl9BQa+IsPEH/ymhP9zTwiyauyq3WpQ478/iRsDihLS+cGCV4JexvNWfIXh/7a6+ubaHBN/aZOFu6ts5k+uaxTErctLebmbVf6oUI77E2wQS/GZlm/kq49panWEKnq1dWKpmxzl/7fVwr/7RfoJDI9xYGJHwW28bV02HjTy1JPeh9gBrkWs1Hsjap1r2NJSXlUJKCqU47u7I7x+Rq5UB9IKOaWTHc+NEp8hyBVjqG/RcoQ35TBdUqFSZvauVQHzU6yiIXAA8Pd1xXy/F/f4tk4OPD+qtlst+5hh1FNpIVvrXlczHTAwyoGEMCea1wje2nhaLZqmtopHe9txb0r9+7ciw8QX5yl3YenVQFxzJ85eZbKJrapE9anhymZ27+yy8JWFGo+EaveD4R71u3lbLHyjB2sLzbQckaGA6RJQKcif6rkkK6Yk1u8nL2+28B9PSZ/31RQrxsqElT68toTnyaRTzpolfU9mrirlx897PlzvT7ApzjD6u7Dgq7hLxL9ZfIXhtf16vLvLvYU3JCGOvXdbFLurmwPaOvmgxaIqpHx1PcIEPJtkw6KJ0UxO3DOLjKvnbrLweZl6n8QdQL0ooRUZJl6zzNvE9r7FS6sVFcyQ/tKbk6JYbDPlRsZFG8Px8/Li7vJJAq/nSIvgTW29W39Yf0JTz2e9vEC71d11XbYBm09r8HauDvOzqv+TE/e2IdytuAPA3SmxzJO1E6vgKumoRNwBV8nDTQoL6Tw+NJppPRjpKRGe3/OXx0SzG1sp7yeX7QzHzzNF4g4AYtWSFPVxRWPFd0O6Vxvv+uqXx3Rw57X43Qv8PSmxrLfEZpkvCnW/Tb/FOu6LyTb0aFN9jASRbehxbjYThTfhuD/Bjs+mRbGpifJv0MU/mfjcDN20Taf9EwXRLax2h6gZPRPe1HvfuyedX0no1jN9rQGrQjVaRgRnDY6VdXeI8UGNerLfHTDyzBK1X6/9oR7SBU/+PS6KdWoZmFUWgq10AAAIV0lEQVTghDCn7GanWqLtQQ4esdQEcjzVxzq6ZYB2QQ8W2SylpI8rKeSi8sM+mdHxjtHe1Ii1OoD/HdEtaXQCDwD3d5MeJDtNGty9qoSLRRCM6x3HPvtzJHu8jw1P9bVhjoi74a7+tRNNTWxvx7xbrJ1mD5YX0S+zTPzuVSV8RZEOYhtHvBP42k2qGXkzuYPv+Xk0fiojNqB7PHttgLUivrn/Bq9W5apR+cwI+eik6Z29q4B16qLqtxA9fz43AHggwQYleyG+ujOSDY72b7GbwTEClk2L9KhBo+KV9ae2IdzrjUlJXeO3LRhoHd3Zzy+1P9/owKvj3PcTJRWduAJPtFbln/0Uk7ycdR8+q8LKTP+HHV93gR+QEM/+1FH6phw7r8K8rBCslIi7vqt/LLuzn3THXDw5ii0aaEXWrHA2d2wMS+xcP0VtTbYdNvInNhTz/+bqcOy8f29V2xAnhtRwB23INfAz10LW2oT4br0DyjaBKI0OuKV7fNg3MyOYtyGbdS3ENwZVVogVIK7L7MGxbLQX5w1RA1U1Fu4bEMveGVJZMa69QzYyR4qmGo7HetvwVw98pm9OimIP9bC7jbjxhM4tnXg2yYo3J0Z53DfG9Va22OrJ4qqYyK28M5JN7uiAzscJU0qkgNcHVuJfI8WNACUJzxwKEhYxhTti5b7zwuhor/IchWo57AEoetcgtiO+ODpa1s97xQ68k6fDgm2+rToP76lsWvt/Wy18boYe+yzqgLS5c52KpwfPVLt9pvqp8pWykn2eHfPf46LYB8MrR4+JF9DMA8FqpuUYEy/g/WGVs/4zMYrVrFCv6HmMc4lkc4XnHHuDA2kPhbNHa6TDuKV7fNi8sdHspwcj2NROdjTTelYNakonO/4zyDrr7hTPLdxHBsWwbfeHs790t8OTNQ0ASIpw4uX+Vqy8M5JNTYzz+sWvJHxzaKxQ4Y++98LoaLbnoXA2sb0DrTxIStZEwzE81oF3hlRWLJ4cxYbJ5CpSM/+UdVTkzgQU+cnfnxLF7uxiRxMFhoReA0zu6MDOByLYfQP8v9DaACqVXpvKZpn427nKRm+/CAHv3xYVkGtfstvEN57W1tuh6G/u7WZHTfGZ/lUJP3VRhdZ6js33Rfjt5Km50tO+lnquKGpIjO2HjfxIuRrnrroKhVy2MTg4d0WFNOOICOWIb+aZv1iOZekmfqBMjQt1vHttmwDdWjnRN1zo5K6AiDu+zzXxkxdVKL4MlP7K4ATQVOPKqNlSz3FDC472zZ0Vnr6QZK3BY4ZRh86otpouq3DBznDJClidrvzmEU05Ipo6Ed/M6TZyJFD9QUkSM2/ZecTAj55To+wqwyUbcNGugsPJoVMzxIUKCG/KEduMY+LNnp0/q9CwsOyqao7Ud5S4nHbnG/kFmQVub1xXH+0x87wzKlyu826NasrRtbUT9w8IbF6iBiPwAPDEhmKu1GKODOV4pIfN4w4hxtocE//hpCZoOVZeu8WKUdc2UO3ON/Cnd7tSOD6YYMOswbEN6rkQBPH7RNWQLuauLvZZTdTKpnMlVxjmZ+nxYZrvCxNzNlr4omxd0MQ9LIT/Ju4Afgu3bK7jJO4EQTROge/XNf6jyR76nz8r0PmU9Or17Ra+0xTc0rR1a6oevLbD8/YbHdQjCYJonAIPAE8Nj/G4pNoGH7Lz6TXBT4hYd4E1v1yNUC3wt8ExZL0TBNF4BR5wbTP3hJMXVdiQ612O7cR2AhLDg1vuvOYO1mXX8rFM7WSn3kgQROMX+NsTY/0Sb62EQQnx7MMpkezFZCuGxAgIdB3h5jqO8X2q/e/ZZSqEqIG61a0IgiAapcADrnjrdk2UG+WTfIym+dPNceyNiVFswQArJrR3KI639sV6B1xFF8j3ThDEH0rgAdcGAEXi3sF/AjmiZxx7eWw0WzSgcvSdXeyIbupf982NNbZxr8sxcoEzPD4smqx3giD8jqYhX9wjg2LY7HXFXCprY2K4gJckqi2tyDDxrdeKcESFcsQ35+gXLszq1zX+I6lzX6vQwgBXbdU0ixpFFb6/D2susOac0WBqJzv2Uj8kCCIANHjLcVOeib+SqRPNmfLuMOua/l3jprv77PHvi3l6cf2XQ4gGSGrnQFKkEzOTlcedf5Vl4mlmtddpgkO1HDsfqN6lOvGLUp56TwRZ7wRB/DEFHgAWbLPwdSfqTzbEigAAwAs/FvOtBnkhjmjK0S9cQGK4gAkK/fgbco08zaLBbrPao1JefdoK+Oh2V4qFnYcNPKtMgzkjyT1DEMQfWOCB6lwtVYyIFbBwgvt8NKm5Rj5fppKRO7q0EtAvwomkcAEDE+Jl781PRww8zaJBmlmFizZ59820zg78cwQJOkEQJPC1SDtq5OtPqJF3To1+EQIWjhcXyqFLS/lVh/dNUzEgKVxAUrgAJRneso8ZRu02q7emWTSShXWfTbQqyiFOEATxhxJ4pTyTWszTzP5L8RsWwpF4TeyVZPb7eK+J7zZrUFhnQXZYjAOvTyTrnSAIEniveG+XiX9eqAvY8du3cKJfhBOJ4QJGyOSVX5Vl4kfOqXDOqsINzQTRSlMEQRAk8AqYva6E55QFJ7S/T1sBSRECHhlE2R8JgiCBDzgrM01crPp6oAjVcCRFOJEU7sAdyeRfJwiCBD6gbMg1cbvA4eAMdqersLTD6aqubhcAoervTl7/cycgOBlsTkC49u+an/92TGed33CGKR1t5IohCIIgCIIgCIIgCIIgCIIgCIIgCIIgCIIgCIIgCIIgCIIgCIIgCIIgCIIgCIIgCIIgCIIgCIIgCIIgCIIgCIIgCIIgCIIgCIIgCIIgCIIgCIIgCIIgCIIgCILwgv8Hrq5D8jwtFUYAAAAASUVORK5CYII=;" parent="1" vertex="1">
          <mxGeometry x="444" y="15" width="282" height="90" as="geometry" />
        </mxCell>
        <mxCell id="H6RvHzRp-p8A8c3SHt8J-5" value="" style="ellipse;whiteSpace=wrap;html=1;aspect=fixed;fillColor=#dae8fc;strokeColor=#6c8ebf;" parent="1" vertex="1">
          <mxGeometry x="9" y="136" width="30" height="30" as="geometry" />
        </mxCell>
        <mxCell id="H6RvHzRp-p8A8c3SHt8J-6" value="Username" style="text;html=1;strokeColor=none;fillColor=none;align=center;verticalAlign=middle;whiteSpace=wrap;rounded=0;" parent="1" vertex="1">
          <mxGeometry x="43" y="136" width="62" height="37" as="geometry" />
        </mxCell>
        <mxCell id="H6RvHzRp-p8A8c3SHt8J-7" value="" style="sketch=0;outlineConnect=0;fontColor=#232F3E;gradientColor=none;fillColor=#232F3D;strokeColor=none;dashed=0;verticalLabelPosition=bottom;verticalAlign=top;align=center;html=1;fontSize=12;fontStyle=0;aspect=fixed;pointerEvents=1;shape=mxgraph.aws4.gear;" parent="1" vertex="1">
          <mxGeometry x="116" y="138" width="35" height="35" as="geometry" />
        </mxCell>
        <mxCell id="H6RvHzRp-p8A8c3SHt8J-64" value="Events:" style="text;html=1;strokeColor=none;fillColor=none;align=center;verticalAlign=middle;whiteSpace=wrap;rounded=0;" parent="1" vertex="1">
          <mxGeometry x="14" y="192" width="60" height="30" as="geometry" />
        </mxCell>
        <mxCell id="H6RvHzRp-p8A8c3SHt8J-65" value="event" style="text;html=1;strokeColor=none;fillColor=none;align=center;verticalAlign=middle;whiteSpace=wrap;rounded=0;" parent="1" vertex="1">
          <mxGeometry x="42" y="217" width="60" height="30" as="geometry" />
        </mxCell>
        <mxCell id="H6RvHzRp-p8A8c3SHt8J-66" value="event" style="text;html=1;strokeColor=none;fillColor=none;align=center;verticalAlign=middle;whiteSpace=wrap;rounded=0;" parent="1" vertex="1">
          <mxGeometry x="42" y="248" width="60" height="30" as="geometry" />
        </mxCell>
        <mxCell id="H6RvHzRp-p8A8c3SHt8J-67" value="event" style="text;html=1;strokeColor=none;fillColor=none;align=center;verticalAlign=middle;whiteSpace=wrap;rounded=0;" parent="1" vertex="1">
          <mxGeometry x="42" y="276" width="60" height="30" as="geometry" />
        </mxCell>
        <mxCell id="H6RvHzRp-p8A8c3SHt8J-68" value="event" style="text;html=1;strokeColor=none;fillColor=none;align=center;verticalAlign=middle;whiteSpace=wrap;rounded=0;" parent="1" vertex="1">
          <mxGeometry x="42" y="306" width="60" height="30" as="geometry" />
        </mxCell>
        <mxCell id="H6RvHzRp-p8A8c3SHt8J-69" value="event" style="text;html=1;strokeColor=none;fillColor=none;align=center;verticalAlign=middle;whiteSpace=wrap;rounded=0;" parent="1" vertex="1">
          <mxGeometry x="42" y="339" width="60" height="30" as="geometry" />
        </mxCell>
        <mxCell id="H6RvHzRp-p8A8c3SHt8J-70" value="event" style="text;html=1;strokeColor=none;fillColor=none;align=center;verticalAlign=middle;whiteSpace=wrap;rounded=0;" parent="1" vertex="1">
          <mxGeometry x="45" y="369" width="60" height="30" as="geometry" />
        </mxCell>
        <mxCell id="H6RvHzRp-p8A8c3SHt8J-78" value="All events..." style="text;html=1;strokeColor=none;fillColor=none;align=center;verticalAlign=middle;whiteSpace=wrap;rounded=0;" parent="1" vertex="1">
          <mxGeometry x="14" y="405" width="72" height="30" as="geometry" />
        </mxCell>
        <mxCell id="H6RvHzRp-p8A8c3SHt8J-79" value="" style="endArrow=none;html=1;rounded=0;exitX=0.458;exitY=0.991;exitDx=0;exitDy=0;exitPerimeter=0;" parent="1" source="61K489PXZdJANs798Jax-128" edge="1">
          <mxGeometry width="50" height="50" relative="1" as="geometry">
            <mxPoint x="4.02" y="442.74" as="sourcePoint" />
            <mxPoint x="166" y="443" as="targetPoint" />
          </mxGeometry>
        </mxCell>
        <mxCell id="H6RvHzRp-p8A8c3SHt8J-83" value="Groups:" style="text;html=1;strokeColor=none;fillColor=none;align=center;verticalAlign=middle;whiteSpace=wrap;rounded=0;" parent="1" vertex="1">
          <mxGeometry x="1042" y="117" width="62" height="37" as="geometry" />
        </mxCell>
        <mxCell id="H6RvHzRp-p8A8c3SHt8J-84" value="" style="ellipse;whiteSpace=wrap;html=1;aspect=fixed;fillColor=#dae8fc;strokeColor=#6c8ebf;" parent="1" vertex="1">
          <mxGeometry x="1037" y="159" width="30" height="30" as="geometry" />
        </mxCell>
        <mxCell id="H6RvHzRp-p8A8c3SHt8J-85" value="Groupname" style="text;html=1;strokeColor=none;fillColor=none;align=center;verticalAlign=middle;whiteSpace=wrap;rounded=0;" parent="1" vertex="1">
          <mxGeometry x="1082" y="155" width="62" height="37" as="geometry" />
        </mxCell>
        <mxCell id="H6RvHzRp-p8A8c3SHt8J-92" value="" style="ellipse;whiteSpace=wrap;html=1;aspect=fixed;fillColor=#dae8fc;strokeColor=#6c8ebf;" parent="1" vertex="1">
          <mxGeometry x="1037" y="230.5" width="30" height="30" as="geometry" />
        </mxCell>
        <mxCell id="H6RvHzRp-p8A8c3SHt8J-94" value="" style="ellipse;whiteSpace=wrap;html=1;aspect=fixed;fillColor=#dae8fc;strokeColor=#6c8ebf;" parent="1" vertex="1">
          <mxGeometry x="1037" y="306" width="30" height="30" as="geometry" />
        </mxCell>
        <mxCell id="H6RvHzRp-p8A8c3SHt8J-96" value="" style="ellipse;whiteSpace=wrap;html=1;aspect=fixed;fillColor=#dae8fc;strokeColor=#6c8ebf;" parent="1" vertex="1">
          <mxGeometry x="1037" y="384" width="30" height="30" as="geometry" />
        </mxCell>
        <mxCell id="H6RvHzRp-p8A8c3SHt8J-98" value="" style="ellipse;whiteSpace=wrap;html=1;aspect=fixed;fillColor=#dae8fc;strokeColor=#6c8ebf;" parent="1" vertex="1">
          <mxGeometry x="1037" y="456" width="30" height="30" as="geometry" />
        </mxCell>
        <mxCell id="H6RvHzRp-p8A8c3SHt8J-110" value="" style="shape=cross;whiteSpace=wrap;html=1;size=0.232788749363106;fillColor=#03CEA4;" parent="1" vertex="1">
          <mxGeometry x="10" y="451" width="32" height="32" as="geometry" />
        </mxCell>
        <mxCell id="H6RvHzRp-p8A8c3SHt8J-113" value="New Event" style="text;html=1;strokeColor=none;fillColor=none;align=center;verticalAlign=middle;whiteSpace=wrap;rounded=0;" parent="1" vertex="1">
          <mxGeometry x="42" y="456" width="94" height="30" as="geometry" />
        </mxCell>
        <mxCell id="61K489PXZdJANs798Jax-3" value="" style="rounded=1;whiteSpace=wrap;html=1;arcSize=1;fillColor=#4E5770;" parent="1" vertex="1">
          <mxGeometry x="209" y="129" width="795" height="673" as="geometry" />
        </mxCell>
        <mxCell id="61K489PXZdJANs798Jax-140" value="" style="rounded=1;whiteSpace=wrap;html=1;fillColor=#03CEA4;" parent="1" vertex="1">
          <mxGeometry x="235" y="389.38" width="208" height="93" as="geometry" />
        </mxCell>
        <mxCell id="61K489PXZdJANs798Jax-4" value="Groupname" style="text;html=1;strokeColor=none;fillColor=none;align=center;verticalAlign=middle;whiteSpace=wrap;rounded=0;" parent="1" vertex="1">
          <mxGeometry x="1080" y="227" width="62" height="37" as="geometry" />
        </mxCell>
        <mxCell id="61K489PXZdJANs798Jax-5" value="Groupname" style="text;html=1;strokeColor=none;fillColor=none;align=center;verticalAlign=middle;whiteSpace=wrap;rounded=0;" parent="1" vertex="1">
          <mxGeometry x="1076" y="299" width="62" height="37" as="geometry" />
        </mxCell>
        <mxCell id="61K489PXZdJANs798Jax-6" value="Groupname" style="text;html=1;strokeColor=none;fillColor=none;align=center;verticalAlign=middle;whiteSpace=wrap;rounded=0;" parent="1" vertex="1">
          <mxGeometry x="1076" y="384" width="62" height="37" as="geometry" />
        </mxCell>
        <mxCell id="61K489PXZdJANs798Jax-7" value="Groupname" style="text;html=1;strokeColor=none;fillColor=none;align=center;verticalAlign=middle;whiteSpace=wrap;rounded=0;" parent="1" vertex="1">
          <mxGeometry x="1078" y="459" width="62" height="37" as="geometry" />
        </mxCell>
        <mxCell id="61K489PXZdJANs798Jax-16" value="" style="rounded=1;whiteSpace=wrap;html=1;fillColor=#4392F1;arcSize=4;" parent="1" vertex="1">
          <mxGeometry x="209" y="129" width="795" height="51" as="geometry" />
        </mxCell>
        <mxCell id="61K489PXZdJANs798Jax-15" value="&lt;b&gt;&lt;font style=&quot;font-size: 26px;&quot;&gt;Date:&lt;/font&gt;&lt;/b&gt;" style="text;html=1;strokeColor=none;fillColor=none;align=center;verticalAlign=middle;whiteSpace=wrap;rounded=0;" parent="1" vertex="1">
          <mxGeometry x="220.5" y="395" width="123" height="37" as="geometry" />
        </mxCell>
        <mxCell id="61K489PXZdJANs798Jax-50" value="" style="endArrow=none;html=1;rounded=0;exitX=0.114;exitY=1;exitDx=0;exitDy=0;exitPerimeter=0;" parent="1" edge="1">
          <mxGeometry width="50" height="50" relative="1" as="geometry">
            <mxPoint x="1.092459456231154e-13" y="186.08923999999996" as="sourcePoint" />
            <mxPoint x="165" y="186" as="targetPoint" />
          </mxGeometry>
        </mxCell>
        <mxCell id="61K489PXZdJANs798Jax-132" value="" style="ellipse;whiteSpace=wrap;html=1;aspect=fixed;fillColor=#dae8fc;strokeColor=#07090D;strokeWidth=4;" parent="1" vertex="1">
          <mxGeometry x="242" y="209" width="90" height="90" as="geometry" />
        </mxCell>
        <mxCell id="61K489PXZdJANs798Jax-133" value="description" style="rounded=1;whiteSpace=wrap;html=1;fillColor=#03CEA4;" parent="1" vertex="1">
          <mxGeometry x="363" y="209" width="597" height="93" as="geometry" />
        </mxCell>
        <mxCell id="61K489PXZdJANs798Jax-135" value="&lt;b&gt;&lt;font style=&quot;font-size: 26px;&quot;&gt;Time:&lt;/font&gt;&lt;/b&gt;" style="text;html=1;strokeColor=none;fillColor=none;align=center;verticalAlign=middle;whiteSpace=wrap;rounded=0;" parent="1" vertex="1">
          <mxGeometry x="220.5" y="434.68" width="123" height="37" as="geometry" />
        </mxCell>
        <mxCell id="61K489PXZdJANs798Jax-138" value="&lt;font style=&quot;font-size: 16px;&quot;&gt;Fr, 27.10.2023&lt;/font&gt;" style="text;html=1;strokeColor=none;fillColor=none;align=center;verticalAlign=middle;whiteSpace=wrap;rounded=0;" parent="1" vertex="1">
          <mxGeometry x="327" y="395" width="106" height="37" as="geometry" />
        </mxCell>
        <mxCell id="61K489PXZdJANs798Jax-139" value="&lt;font style=&quot;font-size: 16px;&quot;&gt;12:35&lt;/font&gt;" style="text;html=1;strokeColor=none;fillColor=none;align=center;verticalAlign=middle;whiteSpace=wrap;rounded=0;" parent="1" vertex="1">
          <mxGeometry x="327" y="438" width="106" height="37" as="geometry" />
        </mxCell>
        <mxCell id="61K489PXZdJANs798Jax-141" value="" style="rounded=1;whiteSpace=wrap;html=1;fillColor=#03CEA4;" parent="1" vertex="1">
          <mxGeometry x="502.5" y="389.38" width="208" height="254.62" as="geometry" />
        </mxCell>
        <mxCell id="61K489PXZdJANs798Jax-142" value="&lt;b&gt;edit&lt;/b&gt;" style="rounded=1;whiteSpace=wrap;html=1;fillColor=#F3F9D2;" parent="1" vertex="1">
          <mxGeometry x="619.5" y="302" width="84" height="28" as="geometry" />
        </mxCell>
        <mxCell id="61K489PXZdJANs798Jax-143" value="&lt;b&gt;edit&lt;/b&gt;" style="rounded=1;whiteSpace=wrap;html=1;fillColor=#F3F9D2;" parent="1" vertex="1">
          <mxGeometry x="305" y="482.38" width="84" height="28" as="geometry" />
        </mxCell>
        <mxCell id="61K489PXZdJANs798Jax-144" value="&lt;b&gt;edit&lt;/b&gt;" style="rounded=1;whiteSpace=wrap;html=1;fillColor=#F3F9D2;" parent="1" vertex="1">
          <mxGeometry x="608.5" y="644" width="84" height="28" as="geometry" />
        </mxCell>
        <mxCell id="61K489PXZdJANs798Jax-145" value="&lt;b&gt;&lt;font style=&quot;font-size: 15px;&quot;&gt;Organisator/Organisators&lt;/font&gt;&lt;/b&gt;" style="text;html=1;strokeColor=none;fillColor=none;align=center;verticalAlign=middle;whiteSpace=wrap;rounded=0;" parent="1" vertex="1">
          <mxGeometry x="545" y="395" width="123" height="37" as="geometry" />
        </mxCell>
        <mxCell id="61K489PXZdJANs798Jax-149" value="" style="ellipse;whiteSpace=wrap;html=1;aspect=fixed;fillColor=#dae8fc;strokeColor=#6c8ebf;" parent="1" vertex="1">
          <mxGeometry x="517" y="438" width="30" height="30" as="geometry" />
        </mxCell>
        <mxCell id="61K489PXZdJANs798Jax-150" value="Username" style="text;html=1;strokeColor=none;fillColor=none;align=center;verticalAlign=middle;whiteSpace=wrap;rounded=0;" parent="1" vertex="1">
          <mxGeometry x="551" y="438" width="62" height="37" as="geometry" />
        </mxCell>
        <mxCell id="61K489PXZdJANs798Jax-151" value="" style="ellipse;whiteSpace=wrap;html=1;aspect=fixed;fillColor=#dae8fc;strokeColor=#6c8ebf;" parent="1" vertex="1">
          <mxGeometry x="517" y="475" width="30" height="30" as="geometry" />
        </mxCell>
        <mxCell id="61K489PXZdJANs798Jax-152" value="Username" style="text;html=1;strokeColor=none;fillColor=none;align=center;verticalAlign=middle;whiteSpace=wrap;rounded=0;" parent="1" vertex="1">
          <mxGeometry x="551" y="475" width="62" height="37" as="geometry" />
        </mxCell>
        <mxCell id="61K489PXZdJANs798Jax-153" value="" style="ellipse;whiteSpace=wrap;html=1;aspect=fixed;fillColor=#dae8fc;strokeColor=#6c8ebf;" parent="1" vertex="1">
          <mxGeometry x="517" y="510.38" width="30" height="30" as="geometry" />
        </mxCell>
        <mxCell id="61K489PXZdJANs798Jax-154" value="Username" style="text;html=1;strokeColor=none;fillColor=none;align=center;verticalAlign=middle;whiteSpace=wrap;rounded=0;" parent="1" vertex="1">
          <mxGeometry x="551" y="510.38" width="62" height="37" as="geometry" />
        </mxCell>
        <mxCell id="61K489PXZdJANs798Jax-155" value="" style="ellipse;whiteSpace=wrap;html=1;aspect=fixed;fillColor=#dae8fc;strokeColor=#6c8ebf;" parent="1" vertex="1">
          <mxGeometry x="517" y="547.38" width="30" height="30" as="geometry" />
        </mxCell>
        <mxCell id="61K489PXZdJANs798Jax-156" value="Username" style="text;html=1;strokeColor=none;fillColor=none;align=center;verticalAlign=middle;whiteSpace=wrap;rounded=0;" parent="1" vertex="1">
          <mxGeometry x="551" y="547.38" width="62" height="37" as="geometry" />
        </mxCell>
        <mxCell id="61K489PXZdJANs798Jax-157" value="" style="ellipse;whiteSpace=wrap;html=1;aspect=fixed;fillColor=#dae8fc;strokeColor=#6c8ebf;" parent="1" vertex="1">
          <mxGeometry x="517" y="584.38" width="30" height="30" as="geometry" />
        </mxCell>
        <mxCell id="61K489PXZdJANs798Jax-158" value="Username" style="text;html=1;strokeColor=none;fillColor=none;align=center;verticalAlign=middle;whiteSpace=wrap;rounded=0;" parent="1" vertex="1">
          <mxGeometry x="551" y="584.38" width="62" height="37" as="geometry" />
        </mxCell>
        <mxCell id="61K489PXZdJANs798Jax-159" value="host" style="text;html=1;strokeColor=none;fillColor=none;align=center;verticalAlign=middle;whiteSpace=wrap;rounded=0;" parent="1" vertex="1">
          <mxGeometry x="628" y="438" width="62" height="37" as="geometry" />
        </mxCell>
        <mxCell id="61K489PXZdJANs798Jax-160" value="contributor" style="text;html=1;strokeColor=none;fillColor=none;align=center;verticalAlign=middle;whiteSpace=wrap;rounded=0;" parent="1" vertex="1">
          <mxGeometry x="630.5" y="477.88" width="62" height="37" as="geometry" />
        </mxCell>
        <mxCell id="61K489PXZdJANs798Jax-161" value="custom role" style="text;html=1;strokeColor=none;fillColor=none;align=center;verticalAlign=middle;whiteSpace=wrap;rounded=0;" parent="1" vertex="1">
          <mxGeometry x="630.5" y="510.38" width="62" height="37" as="geometry" />
        </mxCell>
        <mxCell id="61K489PXZdJANs798Jax-162" value="custom role" style="text;html=1;strokeColor=none;fillColor=none;align=center;verticalAlign=middle;whiteSpace=wrap;rounded=0;" parent="1" vertex="1">
          <mxGeometry x="628" y="547.38" width="62" height="37" as="geometry" />
        </mxCell>
        <mxCell id="61K489PXZdJANs798Jax-165" value="custom role" style="text;html=1;strokeColor=none;fillColor=none;align=center;verticalAlign=middle;whiteSpace=wrap;rounded=0;" parent="1" vertex="1">
          <mxGeometry x="630.5" y="584.38" width="62" height="37" as="geometry" />
        </mxCell>
        <mxCell id="61K489PXZdJANs798Jax-184" value="" style="rounded=1;whiteSpace=wrap;html=1;fillColor=#03CEA4;" parent="1" vertex="1">
          <mxGeometry x="749" y="384" width="227" height="254.62" as="geometry" />
        </mxCell>
        <mxCell id="61K489PXZdJANs798Jax-185" value="" style="ellipse;whiteSpace=wrap;html=1;aspect=fixed;fillColor=#dae8fc;strokeColor=#6c8ebf;" parent="1" vertex="1">
          <mxGeometry x="760.5" y="434.62" width="30" height="30" as="geometry" />
        </mxCell>
        <mxCell id="61K489PXZdJANs798Jax-186" value="Username" style="text;html=1;strokeColor=none;fillColor=none;align=center;verticalAlign=middle;whiteSpace=wrap;rounded=0;" parent="1" vertex="1">
          <mxGeometry x="794.5" y="434.62" width="62" height="37" as="geometry" />
        </mxCell>
        <mxCell id="61K489PXZdJANs798Jax-187" value="" style="ellipse;whiteSpace=wrap;html=1;aspect=fixed;fillColor=#dae8fc;strokeColor=#6c8ebf;" parent="1" vertex="1">
          <mxGeometry x="760.5" y="471.62" width="30" height="30" as="geometry" />
        </mxCell>
        <mxCell id="61K489PXZdJANs798Jax-188" value="Username" style="text;html=1;strokeColor=none;fillColor=none;align=center;verticalAlign=middle;whiteSpace=wrap;rounded=0;" parent="1" vertex="1">
          <mxGeometry x="794.5" y="471.62" width="62" height="37" as="geometry" />
        </mxCell>
        <mxCell id="61K489PXZdJANs798Jax-189" value="" style="ellipse;whiteSpace=wrap;html=1;aspect=fixed;fillColor=#dae8fc;strokeColor=#6c8ebf;" parent="1" vertex="1">
          <mxGeometry x="760.5" y="507" width="30" height="30" as="geometry" />
        </mxCell>
        <mxCell id="61K489PXZdJANs798Jax-190" value="Username" style="text;html=1;strokeColor=none;fillColor=none;align=center;verticalAlign=middle;whiteSpace=wrap;rounded=0;" parent="1" vertex="1">
          <mxGeometry x="794.5" y="507" width="62" height="37" as="geometry" />
        </mxCell>
        <mxCell id="61K489PXZdJANs798Jax-191" value="" style="ellipse;whiteSpace=wrap;html=1;aspect=fixed;fillColor=#dae8fc;strokeColor=#6c8ebf;" parent="1" vertex="1">
          <mxGeometry x="760.5" y="544" width="30" height="30" as="geometry" />
        </mxCell>
        <mxCell id="61K489PXZdJANs798Jax-192" value="Username" style="text;html=1;strokeColor=none;fillColor=none;align=center;verticalAlign=middle;whiteSpace=wrap;rounded=0;" parent="1" vertex="1">
          <mxGeometry x="794.5" y="544" width="62" height="37" as="geometry" />
        </mxCell>
        <mxCell id="61K489PXZdJANs798Jax-193" value="" style="ellipse;whiteSpace=wrap;html=1;aspect=fixed;fillColor=#dae8fc;strokeColor=#6c8ebf;" parent="1" vertex="1">
          <mxGeometry x="760.5" y="581" width="30" height="30" as="geometry" />
        </mxCell>
        <mxCell id="61K489PXZdJANs798Jax-194" value="Username" style="text;html=1;strokeColor=none;fillColor=none;align=center;verticalAlign=middle;whiteSpace=wrap;rounded=0;" parent="1" vertex="1">
          <mxGeometry x="794.5" y="581" width="62" height="37" as="geometry" />
        </mxCell>
        <mxCell id="61K489PXZdJANs798Jax-195" value="&lt;b&gt;edit&lt;/b&gt;" style="rounded=1;whiteSpace=wrap;html=1;fillColor=#F3F9D2;" parent="1" vertex="1">
          <mxGeometry x="876" y="638.62" width="84" height="28" as="geometry" />
        </mxCell>
        <mxCell id="61K489PXZdJANs798Jax-197" value="&lt;b&gt;&lt;font style=&quot;font-size: 15px;&quot;&gt;Participants&lt;/font&gt;&lt;/b&gt;" style="text;html=1;strokeColor=none;fillColor=none;align=center;verticalAlign=middle;whiteSpace=wrap;rounded=0;" parent="1" vertex="1">
          <mxGeometry x="806.5" y="395" width="123" height="37" as="geometry" />
        </mxCell>
        <mxCell id="61K489PXZdJANs798Jax-198" value="" style="ellipse;whiteSpace=wrap;html=1;aspect=fixed;fillColor=#dae8fc;strokeColor=#6c8ebf;" parent="1" vertex="1">
          <mxGeometry x="871.5" y="435" width="30" height="30" as="geometry" />
        </mxCell>
        <mxCell id="61K489PXZdJANs798Jax-199" value="Username" style="text;html=1;strokeColor=none;fillColor=none;align=center;verticalAlign=middle;whiteSpace=wrap;rounded=0;" parent="1" vertex="1">
          <mxGeometry x="905.5" y="435" width="62" height="37" as="geometry" />
        </mxCell>
        <mxCell id="61K489PXZdJANs798Jax-200" value="" style="ellipse;whiteSpace=wrap;html=1;aspect=fixed;fillColor=#dae8fc;strokeColor=#6c8ebf;" parent="1" vertex="1">
          <mxGeometry x="871.5" y="472" width="30" height="30" as="geometry" />
        </mxCell>
        <mxCell id="61K489PXZdJANs798Jax-201" value="Username" style="text;html=1;strokeColor=none;fillColor=none;align=center;verticalAlign=middle;whiteSpace=wrap;rounded=0;" parent="1" vertex="1">
          <mxGeometry x="905.5" y="472" width="62" height="37" as="geometry" />
        </mxCell>
        <mxCell id="61K489PXZdJANs798Jax-202" value="" style="ellipse;whiteSpace=wrap;html=1;aspect=fixed;fillColor=#dae8fc;strokeColor=#6c8ebf;" parent="1" vertex="1">
          <mxGeometry x="871.5" y="507.38" width="30" height="30" as="geometry" />
        </mxCell>
        <mxCell id="61K489PXZdJANs798Jax-203" value="Username" style="text;html=1;strokeColor=none;fillColor=none;align=center;verticalAlign=middle;whiteSpace=wrap;rounded=0;" parent="1" vertex="1">
          <mxGeometry x="905.5" y="507.38" width="62" height="37" as="geometry" />
        </mxCell>
        <mxCell id="61K489PXZdJANs798Jax-204" value="" style="ellipse;whiteSpace=wrap;html=1;aspect=fixed;fillColor=#dae8fc;strokeColor=#6c8ebf;" parent="1" vertex="1">
          <mxGeometry x="871.5" y="544.38" width="30" height="30" as="geometry" />
        </mxCell>
        <mxCell id="61K489PXZdJANs798Jax-205" value="Username" style="text;html=1;strokeColor=none;fillColor=none;align=center;verticalAlign=middle;whiteSpace=wrap;rounded=0;" parent="1" vertex="1">
          <mxGeometry x="905.5" y="544.38" width="62" height="37" as="geometry" />
        </mxCell>
        <mxCell id="61K489PXZdJANs798Jax-206" value="" style="ellipse;whiteSpace=wrap;html=1;aspect=fixed;fillColor=#dae8fc;strokeColor=#6c8ebf;" parent="1" vertex="1">
          <mxGeometry x="871.5" y="581.38" width="30" height="30" as="geometry" />
        </mxCell>
        <mxCell id="61K489PXZdJANs798Jax-207" value="Username" style="text;html=1;strokeColor=none;fillColor=none;align=center;verticalAlign=middle;whiteSpace=wrap;rounded=0;" parent="1" vertex="1">
          <mxGeometry x="905.5" y="581.38" width="62" height="37" as="geometry" />
        </mxCell>
        <mxCell id="61K489PXZdJANs798Jax-210" value="&lt;b&gt;all&lt;/b&gt;" style="rounded=1;whiteSpace=wrap;html=1;fillColor=#F3F9D2;" parent="1" vertex="1">
          <mxGeometry x="783.5" y="638.62" width="84" height="28" as="geometry" />
        </mxCell>
        <mxCell id="61K489PXZdJANs798Jax-211" value="&lt;b&gt;all&lt;/b&gt;" style="rounded=1;whiteSpace=wrap;html=1;fillColor=#F3F9D2;" parent="1" vertex="1">
          <mxGeometry x="517" y="644" width="84" height="28" as="geometry" />
        </mxCell>
        <mxCell id="61K489PXZdJANs798Jax-212" value="" style="rounded=1;whiteSpace=wrap;html=1;fillColor=#03CEA4;" parent="1" vertex="1">
          <mxGeometry x="233.5" y="544.55" width="208" height="93" as="geometry" />
        </mxCell>
        <mxCell id="61K489PXZdJANs798Jax-213" value="&lt;span style=&quot;font-size: 26px;&quot;&gt;&lt;b&gt;Place:&lt;/b&gt;&lt;/span&gt;" style="text;html=1;strokeColor=none;fillColor=none;align=center;verticalAlign=middle;whiteSpace=wrap;rounded=0;" parent="1" vertex="1">
          <mxGeometry x="224" y="571" width="123" height="37" as="geometry" />
        </mxCell>
        <mxCell id="61K489PXZdJANs798Jax-214" value="&lt;b&gt;edit&lt;/b&gt;" style="rounded=1;whiteSpace=wrap;html=1;fillColor=#F3F9D2;" parent="1" vertex="1">
          <mxGeometry x="295.5" y="637.55" width="84" height="28" as="geometry" />
        </mxCell>
        <mxCell id="61K489PXZdJANs798Jax-215" value="&lt;span style=&quot;font-size: 16px;&quot;&gt;place&lt;/span&gt;" style="text;html=1;strokeColor=none;fillColor=none;align=center;verticalAlign=middle;whiteSpace=wrap;rounded=0;" parent="1" vertex="1">
          <mxGeometry x="328" y="571" width="106" height="37" as="geometry" />
        </mxCell>
        <mxCell id="61K489PXZdJANs798Jax-216" value="&lt;b&gt;&lt;font style=&quot;font-size: 26px;&quot;&gt;event&lt;/font&gt;&lt;/b&gt;" style="text;html=1;strokeColor=none;fillColor=none;align=center;verticalAlign=middle;whiteSpace=wrap;rounded=0;" parent="1" vertex="1">
          <mxGeometry x="523.5" y="136" width="123" height="37" as="geometry" />
        </mxCell>
        <mxCell id="61K489PXZdJANs798Jax-217" value="" style="html=1;verticalLabelPosition=bottom;align=center;labelBackgroundColor=#ffffff;verticalAlign=top;strokeWidth=2;strokeColor=#07090D;shadow=0;dashed=0;shape=mxgraph.ios7.icons.bell;fillColor=#03CEA4;" parent="1" vertex="1">
          <mxGeometry x="12.5" y="501.62" width="27.01" height="26" as="geometry" />
        </mxCell>
        <mxCell id="61K489PXZdJANs798Jax-218" value="Notifications" style="text;html=1;strokeColor=none;fillColor=none;align=center;verticalAlign=middle;whiteSpace=wrap;rounded=0;" parent="1" vertex="1">
          <mxGeometry x="45" y="502" width="94" height="30" as="geometry" />
        </mxCell>
        <mxCell id="61K489PXZdJANs798Jax-219" value="8" style="ellipse;whiteSpace=wrap;html=1;aspect=fixed;fillColor=#FF6666;" parent="1" vertex="1">
          <mxGeometry x="29" y="518.88" width="13" height="13" as="geometry" />
        </mxCell>
        <mxCell id="61K489PXZdJANs798Jax-220" value="All groups..." style="text;html=1;strokeColor=none;fillColor=none;align=center;verticalAlign=middle;whiteSpace=wrap;rounded=0;" parent="1" vertex="1">
          <mxGeometry x="1037" y="507" width="72" height="30" as="geometry" />
        </mxCell>
        <mxCell id="61K489PXZdJANs798Jax-222" value="&lt;b&gt;edit&lt;/b&gt;" style="rounded=1;whiteSpace=wrap;html=1;fillColor=#F3F9D2;" parent="1" vertex="1">
          <mxGeometry x="245" y="302" width="84" height="28" as="geometry" />
        </mxCell>
        <mxCell id="61K489PXZdJANs798Jax-224" value="" style="rounded=1;whiteSpace=wrap;html=1;fillColor=#F3F9D2;" parent="1" vertex="1">
          <mxGeometry x="264.81" y="708" width="145.38" height="65" as="geometry" />
        </mxCell>
        <mxCell id="61K489PXZdJANs798Jax-225" value="&lt;span style=&quot;font-size: 26px;&quot;&gt;&lt;b&gt;Chat&lt;/b&gt;&lt;/span&gt;" style="text;html=1;strokeColor=none;fillColor=none;align=center;verticalAlign=middle;whiteSpace=wrap;rounded=0;" parent="1" vertex="1">
          <mxGeometry x="276" y="722" width="123" height="37" as="geometry" />
        </mxCell>
        <mxCell id="61K489PXZdJANs798Jax-227" value="" style="rounded=1;whiteSpace=wrap;html=1;fillColor=#FF6666;" parent="1" vertex="1">
          <mxGeometry x="779" y="708" width="187.69" height="65" as="geometry" />
        </mxCell>
        <mxCell id="61K489PXZdJANs798Jax-228" value="&lt;span style=&quot;font-size: 26px;&quot;&gt;&lt;b&gt;Cancel event&lt;/b&gt;&lt;/span&gt;" style="text;html=1;strokeColor=none;fillColor=none;align=center;verticalAlign=middle;whiteSpace=wrap;rounded=0;" parent="1" vertex="1">
          <mxGeometry x="790" y="722" width="165.5" height="37" as="geometry" />
        </mxCell>
        <mxCell id="jaV0Z3cYTGYhsWJucFyf-1" value="" style="shape=cross;whiteSpace=wrap;html=1;size=0.232788749363106;fillColor=#03CEA4;" vertex="1" parent="1">
          <mxGeometry x="1036.4" y="530.55" width="32" height="32" as="geometry" />
        </mxCell>
        <mxCell id="jaV0Z3cYTGYhsWJucFyf-2" value="New group" style="text;html=1;strokeColor=none;fillColor=none;align=center;verticalAlign=middle;whiteSpace=wrap;rounded=0;" vertex="1" parent="1">
          <mxGeometry x="1068.4" y="535.55" width="94" height="30" as="geometry" />
        </mxCell>
      </root>
    </mxGraphModel>
  </diagram>
</mxfile>
